<?xml version="1.0" encoding="utf-8"?>
<!-- Generator: Adobe Illustrator 21.1.0, SVG Export Plug-In . SVG Version: 6.00 Build 0)  -->
<svg version="1.1" id="Слой_1" xmlns="http://www.w3.org/2000/svg" xmlns:xlink="http://www.w3.org/1999/xlink" x="0px" y="0px"
	 viewBox="0 0 98.9 98.9" style="enable-background:new 0 0 98.9 98.9;" xml:space="preserve">
<style type="text/css">
	.st0{fill:#E6B317;}
	.st1{fill:#FFFFFF;}
</style>
<path class="st0" d="M78.9,0H20C9,0,0,9,0,20v58.9c0,11,9,20,20,20h58.9c11,0,20-9,20-20V20C98.9,9,89.9,0,78.9,0z"/>
<path class="st1" d="M26.2,61.5c0,0.9-0.8,1.7-1.7,1.7h-13c-0.9,0-1.7-0.8-1.7-1.7v-1.8c0-0.7,0.3-1.2,0.9-1.7
	c4-3.9,8.8-8.3,8.8-12.5c0-1.8-0.9-2.5-2.3-2.5c-0.9,0-1.7,0.6-2.2,1.4c-0.5,0.7-0.9,1.1-1.6,1.1c-0.3,0-0.6-0.1-0.9-0.2l-1.7-0.7
	c-0.5-0.3-0.9-0.8-0.9-1.4c0-0.2,0-0.5,0.1-0.7c1.3-3.1,4-4.9,7.9-4.9c4.9,0,7.4,3.2,7.4,6.8c0,7.1-6.6,12.2-8.4,13.6h7.6
	c0.9,0,1.7,0.8,1.7,1.7V61.5z"/>
<path class="st1" d="M37.4,37.7c5.9,0,8.7,5,8.7,12.9s-2.8,12.9-8.6,12.9s-8.8-5-8.8-12.9S31.6,37.7,37.4,37.7z M37.5,58.4
	c2.1,0,2.9-1.9,2.9-7.8c0-5.9-0.9-7.8-3-7.8c-2,0-3,2.1-3,7.8C34.5,56.4,35.7,58.4,37.5,58.4z"/>
<path class="st1" d="M65.4,61.5c0,0.9-0.8,1.7-1.7,1.7h-2.1c-0.9,0-1.7-0.8-1.7-1.7v-3.7H49.9c-0.9,0-1.7-0.8-1.7-1.7V55
	c0-0.8,0.6-1.7,1-2.3L57,39c0.4-0.6,1.1-1,1.8-1h2.4c0.9,0,1.5,0.7,1.5,1.5c0,0.3-0.1,0.5-0.2,0.8l-6.9,12.2H60v-3.7
	c0-0.9,0.8-1.7,1.7-1.7h2.1c0.9,0,1.7,0.8,1.7,1.7v3.7h1.3c0.9,0,1.7,0.8,1.7,1.7v2.1c0,0.9-0.8,1.7-1.7,1.7h-1.3V61.5z"/>
<path class="st1" d="M88.5,44.2c0,2.4-1.3,4.8-3.6,6c2.2,0.6,4.2,2.7,4.2,6c0,4.8-3.8,7.4-9.1,7.4c-5.3,0-9.1-2.7-9.1-6.9
	c0-3.4,1.8-5.5,3.9-6.4c-1.7-0.9-3.2-2.9-3.2-6c0-4,3.7-6.7,8.5-6.7C84.7,37.6,88.5,40.3,88.5,44.2z M76.7,55.6
	c0,1.4,0.9,2.6,3.3,2.6c2.7,0,3.3-1.2,3.3-2.5c0,0,0-0.1,0-0.1c0-1.8-1.3-2.7-3.1-2.7h-0.4C78.2,52.9,76.7,53.8,76.7,55.6z
	 M82.7,45.2c0-1.4-0.9-2.2-2.8-2.2c-1.9,0-2.7,1-2.7,2.2c0,1.1,0.8,2.3,2.5,2.3h0.5C82,47.5,82.7,46.3,82.7,45.2z"/>
</svg>
