<?xml version="1.0" encoding="UTF-8"?>
<svg version="1.1" xmlns="http://www.w3.org/2000/svg" width="256" height="256">
<path d="M0 0 C31.68 0 63.36 0 96 0 C96 2.64 96 5.28 96 8 C103.92 8 111.84 8 120 8 C120 10.64 120 13.28 120 16 C125.28 16 130.56 16 136 16 C136 18.64 136 21.28 136 24 C138.64 24 141.28 24 144 24 C144 26.64 144 29.28 144 32 C146.64 32 149.28 32 152 32 C152 34.64 152 37.28 152 40 C154.64 40 157.28 40 160 40 C160 42.64 160 45.28 160 48 C162.64 48 165.28 48 168 48 C168 53.28 168 58.56 168 64 C170.64 64 173.28 64 176 64 C176 82.48 176 100.96 176 120 C173.36 120 170.72 120 168 120 C168 125.28 168 130.56 168 136 C165.36 136 162.72 136 160 136 C160 141.28 160 146.56 160 152 C162.64 152 165.28 152 168 152 C168 162.56 168 173.12 168 184 C165.36 184 162.72 184 160 184 C160 189.28 160 194.56 160 200 C157.36 200 154.72 200 152 200 C152 202.64 152 205.28 152 208 C149.36 208 146.72 208 144 208 C144 210.64 144 213.28 144 216 C141.36 216 138.72 216 136 216 C136 218.64 136 221.28 136 224 C130.72 224 125.44 224 120 224 C120 226.64 120 229.28 120 232 C112.08 232 104.16 232 96 232 C96 234.64 96 237.28 96 240 C64.32 240 32.64 240 0 240 C0 237.36 0 234.72 0 232 C-7.92 232 -15.84 232 -24 232 C-24 229.36 -24 226.72 -24 224 C-29.28 224 -34.56 224 -40 224 C-40 221.36 -40 218.72 -40 216 C-42.64 216 -45.28 216 -48 216 C-48 213.36 -48 210.72 -48 208 C-50.64 208 -53.28 208 -56 208 C-56 205.36 -56 202.72 -56 200 C-58.64 200 -61.28 200 -64 200 C-64 194.72 -64 189.44 -64 184 C-66.64 184 -69.28 184 -72 184 C-72 173.44 -72 162.88 -72 152 C-69.36 152 -66.72 152 -64 152 C-64 146.72 -64 141.44 -64 136 C-66.64 136 -69.28 136 -72 136 C-72 130.72 -72 125.44 -72 120 C-74.64 120 -77.28 120 -80 120 C-80 101.52 -80 83.04 -80 64 C-77.36 64 -74.72 64 -72 64 C-72 58.72 -72 53.44 -72 48 C-69.36 48 -66.72 48 -64 48 C-64 45.36 -64 42.72 -64 40 C-61.36 40 -58.72 40 -56 40 C-56 37.36 -56 34.72 -56 32 C-53.36 32 -50.72 32 -48 32 C-48 29.36 -48 26.72 -48 24 C-45.36 24 -42.72 24 -40 24 C-40 21.36 -40 18.72 -40 16 C-34.72 16 -29.44 16 -24 16 C-24 13.36 -24 10.72 -24 8 C-16.08 8 -8.16 8 0 8 C0 5.36 0 2.72 0 0 Z " fill="#FFFFFF" transform="translate(80,8)"/>
<path d="M0 0 C2.64 0 5.28 0 8 0 C8 2.64 8 5.28 8 8 C10.64 8 13.28 8 16 8 C16 10.64 16 13.28 16 16 C21.28 16 26.56 16 32 16 C32 18.64 32 21.28 32 24 C66.32 24 100.64 24 136 24 C136 21.36 136 18.72 136 16 C141.28 16 146.56 16 152 16 C152 10.72 152 5.44 152 0 C154.64 0 157.28 0 160 0 C160 2.64 160 5.28 160 8 C162.64 8 165.28 8 168 8 C168 10.64 168 13.28 168 16 C170.64 16 173.28 16 176 16 C176 18.64 176 21.28 176 24 C170.72 24 165.44 24 160 24 C160 26.64 160 29.28 160 32 C157.36 32 154.72 32 152 32 C152 34.64 152 37.28 152 40 C149.36 40 146.72 40 144 40 C144 42.64 144 45.28 144 48 C141.36 48 138.72 48 136 48 C136 50.64 136 53.28 136 56 C130.72 56 125.44 56 120 56 C120 58.64 120 61.28 120 64 C96.24 64 72.48 64 48 64 C48 61.36 48 58.72 48 56 C42.72 56 37.44 56 32 56 C32 53.36 32 50.72 32 48 C26.72 48 21.44 48 16 48 C16 45.36 16 42.72 16 40 C13.36 40 10.72 40 8 40 C8 37.36 8 34.72 8 32 C5.36 32 2.72 32 0 32 C0 29.36 0 26.72 0 24 C-5.28 24 -10.56 24 -16 24 C-16 21.36 -16 18.72 -16 16 C-10.72 16 -5.44 16 0 16 C0 10.72 0 5.44 0 0 Z " fill="#000000" transform="translate(48,160)"/>
<path d="M0 0 C15.84 0 31.68 0 48 0 C48 2.64 48 5.28 48 8 C53.28 8 58.56 8 64 8 C64 10.64 64 13.28 64 16 C66.64 16 69.28 16 72 16 C72 23.92 72 31.84 72 40 C69.36 40 66.72 40 64 40 C64 42.64 64 45.28 64 48 C58.72 48 53.44 48 48 48 C48 50.64 48 53.28 48 56 C37.44 56 26.88 56 16 56 C16 58.64 16 61.28 16 64 C13.36 64 10.72 64 8 64 C8 61.36 8 58.72 8 56 C5.36 56 2.72 56 0 56 C0 50.72 0 45.44 0 40 C-2.64 40 -5.28 40 -8 40 C-8 29.44 -8 18.88 -8 8 C-5.36 8 -2.72 8 0 8 C0 5.36 0 2.72 0 0 Z " fill="#000000" transform="translate(160,88)"/>
<path d="M0 0 C15.84 0 31.68 0 48 0 C48 2.64 48 5.28 48 8 C50.64 8 53.28 8 56 8 C56 18.56 56 29.12 56 40 C53.36 40 50.72 40 48 40 C48 45.28 48 50.56 48 56 C45.36 56 42.72 56 40 56 C40 58.64 40 61.28 40 64 C37.36 64 34.72 64 32 64 C32 61.36 32 58.72 32 56 C21.44 56 10.88 56 0 56 C0 53.36 0 50.72 0 48 C-5.28 48 -10.56 48 -16 48 C-16 45.36 -16 42.72 -16 40 C-18.64 40 -21.28 40 -24 40 C-24 32.08 -24 24.16 -24 16 C-21.36 16 -18.72 16 -16 16 C-16 13.36 -16 10.72 -16 8 C-10.72 8 -5.44 8 0 8 C0 5.36 0 2.72 0 0 Z " fill="#000000" transform="translate(48,88)"/>
<path d="M0 0 C2.64 0 5.28 0 8 0 C8 2.64 8 5.28 8 8 C10.64 8 13.28 8 16 8 C16 10.64 16 13.28 16 16 C21.28 16 26.56 16 32 16 C32 18.64 32 21.28 32 24 C29.36 24 26.72 24 24 24 C24 29.28 24 34.56 24 40 C26.64 40 29.28 40 32 40 C32 42.64 32 45.28 32 48 C26.72 48 21.44 48 16 48 C16 45.36 16 42.72 16 40 C13.36 40 10.72 40 8 40 C8 37.36 8 34.72 8 32 C5.36 32 2.72 32 0 32 C0 29.36 0 26.72 0 24 C-5.28 24 -10.56 24 -16 24 C-16 21.36 -16 18.72 -16 16 C-10.72 16 -5.44 16 0 16 C0 10.72 0 5.44 0 0 Z " fill="#000000" transform="translate(48,160)"/>
<path d="M0 0 C5.28 0 10.56 0 16 0 C16 5.28 16 10.56 16 16 C18.64 16 21.28 16 24 16 C24 23.92 24 31.84 24 40 C13.44 40 2.88 40 -8 40 C-8 32.08 -8 24.16 -8 16 C-5.36 16 -2.72 16 0 16 C0 10.72 0 5.44 0 0 Z " fill="#000000" transform="translate(120,128)"/>
<path d="M0 0 C2.64 0 5.28 0 8 0 C8 2.64 8 5.28 8 8 C10.64 8 13.28 8 16 8 C16 10.64 16 13.28 16 16 C18.64 16 21.28 16 24 16 C24 18.64 24 21.28 24 24 C18.72 24 13.44 24 8 24 C8 26.64 8 29.28 8 32 C5.36 32 2.72 32 0 32 C0 34.64 0 37.28 0 40 C-5.28 40 -10.56 40 -16 40 C-16 32.08 -16 24.16 -16 16 C-10.72 16 -5.44 16 0 16 C0 10.72 0 5.44 0 0 Z " fill="#000000" transform="translate(200,160)"/>
<path d="M0 0 C31.68 0 63.36 0 96 0 C96 2.64 96 5.28 96 8 C64.32 8 32.64 8 0 8 C0 5.36 0 2.72 0 0 Z " fill="#000000" transform="translate(80,240)"/>
<path d="M0 0 C31.68 0 63.36 0 96 0 C96 2.64 96 5.28 96 8 C64.32 8 32.64 8 0 8 C0 5.36 0 2.72 0 0 Z " fill="#000000" transform="translate(80,8)"/>
<path d="M0 0 C7.92 0 15.84 0 24 0 C24 7.92 24 15.84 24 24 C16.08 24 8.16 24 0 24 C0 16.08 0 8.16 0 0 Z " fill="#FFFFFF" transform="translate(128,192)"/>
<path d="M0 0 C5.28 0 10.56 0 16 0 C16 2.64 16 5.28 16 8 C13.36 8 10.72 8 8 8 C8 13.28 8 18.56 8 24 C10.64 24 13.28 24 16 24 C16 26.64 16 29.28 16 32 C10.72 32 5.44 32 0 32 C0 29.36 0 26.72 0 24 C-2.64 24 -5.28 24 -8 24 C-8 21.36 -8 18.72 -8 16 C-5.36 16 -2.72 16 0 16 C0 10.72 0 5.44 0 0 Z " fill="#000000" transform="translate(64,176)"/>
<path d="M0 0 C2.64 0 5.28 0 8 0 C8 18.48 8 36.96 8 56 C5.36 56 2.72 56 0 56 C0 37.52 0 19.04 0 0 Z " fill="#000000" transform="translate(248,72)"/>
<path d="M0 0 C2.64 0 5.28 0 8 0 C8 18.48 8 36.96 8 56 C5.36 56 2.72 56 0 56 C0 37.52 0 19.04 0 0 Z " fill="#000000" transform="translate(0,72)"/>
<path d="M0 0 C5.28 0 10.56 0 16 0 C16 7.92 16 15.84 16 24 C10.72 24 5.44 24 0 24 C0 16.08 0 8.16 0 0 Z " fill="#FFFFFF" transform="translate(104,192)"/>
<path d="M0 0 C2.64 0 5.28 0 8 0 C8 2.64 8 5.28 8 8 C13.28 8 18.56 8 24 8 C24 13.28 24 18.56 24 24 C18.72 24 13.44 24 8 24 C8 21.36 8 18.72 8 16 C5.36 16 2.72 16 0 16 C0 10.72 0 5.44 0 0 Z " fill="#FFFFFF" transform="translate(72,184)"/>
<path d="M0 0 C5.28 0 10.56 0 16 0 C16 5.28 16 10.56 16 16 C13.36 16 10.72 16 8 16 C8 18.64 8 21.28 8 24 C5.36 24 2.72 24 0 24 C0 16.08 0 8.16 0 0 Z " fill="#FFFFFF" transform="translate(160,192)"/>
<path d="M0 0 C2.64 0 5.28 0 8 0 C8 10.56 8 21.12 8 32 C5.36 32 2.72 32 0 32 C0 21.44 0 10.88 0 0 Z " fill="#000000" transform="translate(240,160)"/>
<path d="M0 0 C2.64 0 5.28 0 8 0 C8 10.56 8 21.12 8 32 C5.36 32 2.72 32 0 32 C0 21.44 0 10.88 0 0 Z " fill="#000000" transform="translate(8,160)"/>
<path d="M0 0 C5.28 0 10.56 0 16 0 C16 5.28 16 10.56 16 16 C10.72 16 5.44 16 0 16 C0 10.72 0 5.44 0 0 Z " fill="#FFFFFF" transform="translate(176,112)"/>
<path d="M0 0 C5.28 0 10.56 0 16 0 C16 5.28 16 10.56 16 16 C10.72 16 5.44 16 0 16 C0 10.72 0 5.44 0 0 Z " fill="#FFFFFF" transform="translate(64,112)"/>
<path d="M0 0 C7.92 0 15.84 0 24 0 C24 2.64 24 5.28 24 8 C16.08 8 8.16 8 0 8 C0 5.36 0 2.72 0 0 Z " fill="#000000" transform="translate(176,232)"/>
<path d="M0 0 C7.92 0 15.84 0 24 0 C24 2.64 24 5.28 24 8 C16.08 8 8.16 8 0 8 C0 5.36 0 2.72 0 0 Z " fill="#000000" transform="translate(56,232)"/>
<path d="M0 0 C7.92 0 15.84 0 24 0 C24 2.64 24 5.28 24 8 C16.08 8 8.16 8 0 8 C0 5.36 0 2.72 0 0 Z " fill="#000000" transform="translate(176,16)"/>
<path d="M0 0 C7.92 0 15.84 0 24 0 C24 2.64 24 5.28 24 8 C16.08 8 8.16 8 0 8 C0 5.36 0 2.72 0 0 Z " fill="#000000" transform="translate(56,16)"/>
<path d="M0 0 C5.28 0 10.56 0 16 0 C16 2.64 16 5.28 16 8 C10.72 8 5.44 8 0 8 C0 5.36 0 2.72 0 0 Z " fill="#000000" transform="translate(200,224)"/>
<path d="M0 0 C5.28 0 10.56 0 16 0 C16 2.64 16 5.28 16 8 C10.72 8 5.44 8 0 8 C0 5.36 0 2.72 0 0 Z " fill="#000000" transform="translate(40,224)"/>
<path d="M0 0 C2.64 0 5.28 0 8 0 C8 5.28 8 10.56 8 16 C5.36 16 2.72 16 0 16 C0 10.72 0 5.44 0 0 Z " fill="#000000" transform="translate(232,192)"/>
<path d="M0 0 C2.64 0 5.28 0 8 0 C8 5.28 8 10.56 8 16 C5.36 16 2.72 16 0 16 C0 10.72 0 5.44 0 0 Z " fill="#000000" transform="translate(16,192)"/>
<path d="M0 0 C2.64 0 5.28 0 8 0 C8 5.28 8 10.56 8 16 C5.36 16 2.72 16 0 16 C0 10.72 0 5.44 0 0 Z " fill="#FFFFFF" transform="translate(184,184)"/>
<path d="M0 0 C2.64 0 5.28 0 8 0 C8 5.28 8 10.56 8 16 C5.36 16 2.72 16 0 16 C0 10.72 0 5.44 0 0 Z " fill="#FFFFFF" transform="translate(56,176)"/>
<path d="M0 0 C5.28 0 10.56 0 16 0 C16 2.64 16 5.28 16 8 C10.72 8 5.44 8 0 8 C0 5.36 0 2.72 0 0 Z " fill="#000000" transform="translate(176,152)"/>
<path d="M0 0 C5.28 0 10.56 0 16 0 C16 2.64 16 5.28 16 8 C10.72 8 5.44 8 0 8 C0 5.36 0 2.72 0 0 Z " fill="#000000" transform="translate(64,152)"/>
<path d="M0 0 C2.64 0 5.28 0 8 0 C8 5.28 8 10.56 8 16 C5.36 16 2.72 16 0 16 C0 10.72 0 5.44 0 0 Z " fill="#000000" transform="translate(232,144)"/>
<path d="M0 0 C2.64 0 5.28 0 8 0 C8 5.28 8 10.56 8 16 C5.36 16 2.72 16 0 16 C0 10.72 0 5.44 0 0 Z " fill="#000000" transform="translate(16,144)"/>
<path d="M0 0 C2.64 0 5.28 0 8 0 C8 5.28 8 10.56 8 16 C5.36 16 2.72 16 0 16 C0 10.72 0 5.44 0 0 Z " fill="#000000" transform="translate(240,128)"/>
<path d="M0 0 C2.64 0 5.28 0 8 0 C8 5.28 8 10.56 8 16 C5.36 16 2.72 16 0 16 C0 10.72 0 5.44 0 0 Z " fill="#000000" transform="translate(8,128)"/>
<path d="M0 0 C2.64 0 5.28 0 8 0 C8 5.28 8 10.56 8 16 C5.36 16 2.72 16 0 16 C0 10.72 0 5.44 0 0 Z " fill="#000000" transform="translate(240,56)"/>
<path d="M0 0 C2.64 0 5.28 0 8 0 C8 5.28 8 10.56 8 16 C5.36 16 2.72 16 0 16 C0 10.72 0 5.44 0 0 Z " fill="#000000" transform="translate(8,56)"/>
<path d="M0 0 C5.28 0 10.56 0 16 0 C16 2.64 16 5.28 16 8 C10.72 8 5.44 8 0 8 C0 5.36 0 2.72 0 0 Z " fill="#000000" transform="translate(200,24)"/>
<path d="M0 0 C5.28 0 10.56 0 16 0 C16 2.64 16 5.28 16 8 C10.72 8 5.44 8 0 8 C0 5.36 0 2.72 0 0 Z " fill="#000000" transform="translate(40,24)"/>
<path d="M0 0 C2.64 0 5.28 0 8 0 C8 2.64 8 5.28 8 8 C5.36 8 2.72 8 0 8 C0 5.36 0 2.72 0 0 Z " fill="#000000" transform="translate(216,216)"/>
<path d="M0 0 C2.64 0 5.28 0 8 0 C8 2.64 8 5.28 8 8 C5.36 8 2.72 8 0 8 C0 5.36 0 2.72 0 0 Z " fill="#000000" transform="translate(32,216)"/>
<path d="M0 0 C2.64 0 5.28 0 8 0 C8 2.64 8 5.28 8 8 C5.36 8 2.72 8 0 8 C0 5.36 0 2.72 0 0 Z " fill="#000000" transform="translate(224,208)"/>
<path d="M0 0 C2.64 0 5.28 0 8 0 C8 2.64 8 5.28 8 8 C5.36 8 2.72 8 0 8 C0 5.36 0 2.72 0 0 Z " fill="#000000" transform="translate(24,208)"/>
<path d="M0 0 C2.64 0 5.28 0 8 0 C8 2.64 8 5.28 8 8 C5.36 8 2.72 8 0 8 C0 5.36 0 2.72 0 0 Z " fill="#000000" transform="translate(232,48)"/>
<path d="M0 0 C2.64 0 5.28 0 8 0 C8 2.64 8 5.28 8 8 C5.36 8 2.72 8 0 8 C0 5.36 0 2.72 0 0 Z " fill="#000000" transform="translate(16,48)"/>
<path d="M0 0 C2.64 0 5.28 0 8 0 C8 2.64 8 5.28 8 8 C5.36 8 2.72 8 0 8 C0 5.36 0 2.72 0 0 Z " fill="#000000" transform="translate(224,40)"/>
<path d="M0 0 C2.64 0 5.28 0 8 0 C8 2.64 8 5.28 8 8 C5.36 8 2.72 8 0 8 C0 5.36 0 2.72 0 0 Z " fill="#000000" transform="translate(24,40)"/>
<path d="M0 0 C2.64 0 5.28 0 8 0 C8 2.64 8 5.28 8 8 C5.36 8 2.72 8 0 8 C0 5.36 0 2.72 0 0 Z " fill="#000000" transform="translate(216,32)"/>
<path d="M0 0 C2.64 0 5.28 0 8 0 C8 2.64 8 5.28 8 8 C5.36 8 2.72 8 0 8 C0 5.36 0 2.72 0 0 Z " fill="#000000" transform="translate(32,32)"/>
</svg>
