<svg height="512pt" viewBox="-7 0 512 512" width="512pt" xmlns="http://www.w3.org/2000/svg"><g fill="#eb5793"><path d="m217.8125 349.359375c-4.140625 0-7.5-3.359375-7.5-7.5v-23.105469c0-4.140625 3.359375-7.5 7.5-7.5s7.5 3.359375 7.5 7.5v23.105469c0 4.140625-3.359375 7.5-7.5 7.5zm0 0"/><path d="m248.484375 372.519531c-4.140625 0-7.5-3.355469-7.5-7.5v-37.917969c0-4.144531 3.359375-7.5 7.5-7.5 4.144531 0 7.5 3.355469 7.5 7.5v37.917969c0 4.140625-3.355469 7.5-7.5 7.5zm0 0"/><path d="m279.160156 349.359375c-4.144531 0-7.5-3.359375-7.5-7.5v-23.105469c0-4.140625 3.355469-7.5 7.5-7.5 4.140625 0 7.5 3.359375 7.5 7.5v23.105469c0 4.140625-3.359375 7.5-7.5 7.5zm0 0"/></g><path d="m186.375 50.398438h-124.25v-45.65625c0-2.621094 2.121094-4.742188 4.742188-4.742188h119.507812zm0 0" fill="#ffe565"/><path d="m434.875 50.398438h-124.25v-50.398438h119.507812c2.621094 0 4.742188 2.121094 4.742188 4.742188zm0 0" fill="#6990d7"/><path d="m186.375 151.191406h-119.507812c-2.621094 0-4.742188-2.125-4.742188-4.742187v-45.65625h124.25zm0 0" fill="#97d57e"/><path d="m430.132812 151.191406h-119.507812v-50.398437h124.25v45.65625c0 2.617187-2.121094 4.742187-4.742188 4.742187zm0 0" fill="#6990d7"/><path d="m124.25 100.792969h-119.507812c-2.621094 0-4.742188-2.121094-4.742188-4.742188v-40.910156c0-2.621094 2.121094-4.742187 4.742188-4.742187h119.507812zm0 0" fill="#eb5793"/><path d="m492.257812 100.792969h-119.507812v-50.394531h119.507812c2.621094 0 4.742188 2.121093 4.742188 4.742187v40.910156c0 2.621094-2.121094 4.742188-4.742188 4.742188zm0 0" fill="#eb5793"/><path d="m248.5 50.398438h124.25v50.394531h-124.25zm0 0" fill="#ffe565"/><path d="m124.234375 50.398438h124.25v50.394531h-124.25zm0 0" fill="#6990d7"/><path d="m186.375 0h124.25v50.398438h-124.25zm0 0" fill="#97d57e"/><path d="m186.375 100.792969h124.25v50.398437h-124.25zm0 0" fill="#eb5793"/><path d="m153.113281 512h-26.097656c-2.304687 0-4.175781-1.871094-4.175781-4.175781v-74.574219c0-2.304688 1.871094-4.175781 4.175781-4.175781h26.097656c2.304688 0 4.175781 1.871093 4.175781 4.175781v74.574219c0 2.304687-1.871093 4.175781-4.175781 4.175781zm0 0" fill="#eb5793"/><path d="m122.839844 480.234375v27.589844c0 2.304687 1.871094 4.175781 4.175781 4.175781h26.09375c2.308594 0 4.179687-1.871094 4.179687-4.175781v-27.589844zm0 0" fill="#e7387f"/><path d="m343.886719 512h26.097656c2.304687 0 4.175781-1.871094 4.175781-4.175781v-74.574219c0-2.304688-1.871094-4.175781-4.175781-4.175781h-26.097656c-2.304688 0-4.175781 1.871093-4.175781 4.175781v74.574219c0 2.304687 1.871093 4.175781 4.175781 4.175781zm0 0" fill="#eb5793"/><path d="m369.984375 429.074219h-6.261719c.394532 1.1875.605469 2.453125.605469 3.773437v21.699219c0 13.828125-10.925781 25.105469-24.617187 25.667969v27.609375c0 2.304687 1.871093 4.175781 4.179687 4.175781h26.09375c2.304687 0 4.175781-1.871094 4.175781-4.175781v-74.574219c0-2.304688-1.871094-4.175781-4.175781-4.175781zm0 0" fill="#e7387f"/><path d="m157.289062 440.839844h182.421876v59.394531h-182.421876zm0 0" fill="#887f89"/><path d="m122.839844 440.839844h-18.160156c-6.632813 0-12.007813 5.375-12.007813 12.007812v35.378906c0 6.632813 5.375 12.007813 12.007813 12.007813h18.160156zm0 0" fill="#887f89"/><path d="m92.671875 480.234375v7.992187c0 6.632813 5.375 12.007813 12.007813 12.007813h18.160156v-20zm0 0" fill="#777078"/><path d="m392.320312 440.839844h-18.160156v59.394531h18.160156c6.632813 0 12.007813-5.375 12.007813-12.007813v-35.378906c0-6.632812-5.375-12.007812-12.007813-12.007812zm0 0" fill="#887f89"/><path d="m392.320312 440.839844h-18.160156v59.394531h18.160156c6.632813 0 12.007813-5.375 12.007813-12.007813v-35.378906c0-6.632812-5.375-12.007812-12.007813-12.007812zm0 0" fill="#777078"/><path d="m338.640625 480.234375h-181.351563v20h182.421876v-20.019531c-.355469.011718-.710938.019531-1.070313.019531zm0 0" fill="#777078"/><path d="m279.160156 266.425781c0 16.941407-13.734375 30.675781-30.675781 30.675781s-30.671875-13.734374-30.671875-30.675781c0-16.941406 13.730469-30.671875 30.671875-30.671875s30.675781 13.730469 30.675781 30.671875zm0 0" fill="#e5e2e6"/><path d="m251.257812 235.875c4.910157 5.441406 7.902344 12.644531 7.902344 20.550781 0 16.941407-13.734375 30.675781-30.675781 30.675781-.933594 0-1.859375-.042968-2.769531-.125 5.613281 6.214844 13.734375 10.125 22.769531 10.125 16.941406 0 30.675781-13.734374 30.675781-30.675781 0-16.003906-12.261718-29.148437-27.902344-30.550781zm0 0" fill="#d6d1d7"/></svg>