<svg id="Capa_1" enable-background="new 0 0 512 512" height="512" viewBox="0 0 512 512" width="512" xmlns="http://www.w3.org/2000/svg"><g><path d="m509.92 49.118c-19.334 6.676-34.526 21.869-41.202 41.202-.958 2.773-4.879 2.773-5.836 0-6.676-19.334-21.869-34.526-41.202-41.202-2.773-.958-2.773-4.879 0-5.836 19.334-6.676 34.526-21.869 41.202-41.202.958-2.773 4.879-2.773 5.836 0 6.676 19.334 21.869 34.526 41.202 41.202 2.773.957 2.773 4.879 0 5.836z" fill="#eaf6ff"/><path d="m509.921 43.282c-19.334-6.676-34.526-21.869-41.202-41.202-.957-2.773-4.879-2.773-5.837 0-2.791 8.082-7.087 15.426-12.534 21.74 1.853.714 8.959 3.703 12.958 11.571 5.384 10.593.431 20.772 0 21.619-3.999 7.868-11.105 10.857-12.958 11.571 5.448 6.315 9.743 13.658 12.534 21.74.957 2.773 4.879 2.773 5.837 0 6.676-19.334 21.869-34.526 41.202-41.202 2.772-.958 2.772-4.88 0-5.837z" fill="#d8ecfe"/><path d="m90.321 190.926c-19.334 6.676-34.526 21.869-41.202 41.202-.958 2.773-4.879 2.773-5.836 0-6.676-19.334-21.869-34.526-41.202-41.202-2.773-.958-2.773-4.879 0-5.837 19.334-6.676 34.526-21.869 41.202-41.202.958-2.773 4.879-2.773 5.836 0 6.676 19.334 21.869 34.526 41.202 41.202 2.773.958 2.773 4.88 0 5.837z" fill="#eaf6ff"/><g><circle cx="112.29" cy="399.71" fill="#fee97d" r="112.29"/><path d="m112.29 287.421c-5.243 0-10.4.368-15.453 1.063 54.702 7.53 96.837 54.454 96.837 111.226s-42.135 103.696-96.837 111.226c5.052.696 10.209 1.063 15.453 1.063 62.016 0 112.29-50.274 112.29-112.29s-50.274-112.288-112.29-112.288z" fill="#f4da6e"/><g><path d="m112.29 488.821c-49.136 0-89.111-39.975-89.111-89.111 0-4.268 3.459-7.726 7.726-7.726s7.726 3.459 7.726 7.726c0 40.615 33.043 73.658 73.658 73.658 4.268 0 7.726 3.459 7.726 7.726s-3.458 7.727-7.725 7.727z" fill="#fff5c6"/></g></g><g><circle cx="399.71" cy="399.71" fill="#8795de" r="112.29"/><path d="m399.71 287.421c-5.243 0-10.4.368-15.453 1.063 54.702 7.53 96.837 54.454 96.837 111.226s-42.135 103.696-96.837 111.226c5.052.696 10.209 1.063 15.453 1.063 62.016.001 112.29-50.273 112.29-112.289s-50.274-112.289-112.29-112.289z" fill="#6c7fd8"/><path d="m389.098 312.983c-19.334 6.676-34.526 21.869-41.202 41.202-.958 2.773-4.879 2.773-5.836 0-6.676-19.334-21.869-34.526-41.202-41.202-2.773-.958-2.773-4.879 0-5.837 19.334-6.676 34.526-21.869 41.202-41.202.958-2.773 4.879-2.773 5.836 0 6.676 19.334 21.869 34.526 41.202 41.202 2.773.958 2.773 4.879 0 5.837z" fill="#eaf6ff"/><g><path d="m399.71 488.821c-49.136 0-89.111-39.975-89.111-89.111 0-4.268 3.459-7.726 7.726-7.726s7.726 3.459 7.726 7.726c0 40.615 33.043 73.658 73.658 73.658 4.268 0 7.726 3.459 7.726 7.726s-3.457 7.727-7.725 7.727z" fill="#d5daf3"/></g></g><g><circle cx="256" cy="112.29" fill="#f58a97" r="112.29"/><path d="m256 0c-5.243 0-10.4.368-15.453 1.063 54.702 7.53 96.837 54.454 96.837 111.226s-42.135 103.696-96.837 111.226c5.052.696 10.209 1.063 15.453 1.063 62.016 0 112.29-50.274 112.29-112.29s-50.274-112.288-112.29-112.288z" fill="#f07281"/><g><path d="m256 201.4c-49.136 0-89.111-39.975-89.111-89.111 0-4.268 3.459-7.726 7.726-7.726s7.726 3.459 7.726 7.726c0 40.615 33.043 73.658 73.658 73.658 4.268 0 7.726 3.459 7.726 7.726s-3.457 7.727-7.725 7.727z" fill="#fdd1d5"/></g></g><g fill="#d8ecfe"><path d="m90.321 185.09c-19.334-6.676-34.526-21.869-41.202-41.202-.957-2.773-4.879-2.773-5.837 0-2.791 8.082-7.087 15.426-12.534 21.74 1.853.714 8.959 3.703 12.958 11.571 5.384 10.593.431 20.772 0 21.619-3.999 7.868-11.105 10.857-12.958 11.571 5.448 6.315 9.743 13.658 12.534 21.74.957 2.773 4.879 2.773 5.837 0 6.676-19.334 21.869-34.526 41.202-41.202 2.773-.958 2.773-4.88 0-5.837z"/><path d="m389.098 307.146c-19.334-6.676-34.526-21.869-41.202-41.202-.957-2.773-4.879-2.773-5.837 0-2.791 8.082-7.087 15.426-12.534 21.74 1.853.714 8.959 3.703 12.958 11.571 5.384 10.593.431 20.772 0 21.619-3.999 7.868-11.105 10.857-12.958 11.571 5.448 6.315 9.743 13.658 12.534 21.74.957 2.773 4.879 2.773 5.837 0 6.676-19.334 21.869-34.526 41.202-41.202 2.773-.958 2.773-4.879 0-5.837z"/></g></g></svg>