<svg id="Layer_1" enable-background="new 0 0 500 500" viewBox="0 0 500 500" xmlns="http://www.w3.org/2000/svg"><g clip-rule="evenodd" fill-rule="evenodd"><path d="m239.426 92.132 83.921 117.494h-40.314v130.768h17.704v86.363l-61.311 39.043-61.311-39.044v-86.362h17.705v-130.768h-40.314z" fill="#60b7fe"/><path d="m119.417 202.48 49.013 68.621h-23.545v72.967h15.564v71.438l-66.499-42.348v-102.057h-23.546z" fill="#19cfba"/><path d="m170.353 294.783 49.012 68.621h-23.545v74.627l-50.935-32.436v-42.191h-23.545z" fill="#ffbf31"/><path d="m359.436 202.48-49.013 68.621h23.545v72.967h-15.564v71.438l66.499-42.348v-102.057h23.545z" fill="#19cfba"/><path d="m308.5 294.783-49.012 68.621h23.545v74.627l50.935-32.436v-42.191h23.545z" fill="#ffbf31"/><path d="m131.462 44.839h32.464v30.266h30.266v32.464h-30.266v30.267h-32.464v-30.267h-30.267v-32.464h30.267z" fill="#60b7fe"/><path d="m282.506 40.84c0-3.667 2.973-6.64 6.64-6.64s6.64 2.973 6.64 6.64v20.618c0 3.667-2.973 6.64-6.64 6.64s-6.64-2.973-6.64-6.64zm137.838 126.554c0-3.667 2.973-6.64 6.64-6.64s6.64 2.973 6.64 6.64v20.618c0 3.667-2.973 6.64-6.64 6.64s-6.64-2.973-6.64-6.64zm0 49.035c0-3.667 2.973-6.64 6.64-6.64s6.64 2.973 6.64 6.64v20.618c0 3.667-2.973 6.64-6.64 6.64s-6.64-2.973-6.64-6.64zm-353.969-93.69c0-3.667 2.973-6.64 6.64-6.64s6.64 2.973 6.64 6.64v20.618c0 3.667-2.973 6.64-6.64 6.64s-6.64-2.973-6.64-6.64zm0 49.036c0-3.667 2.973-6.64 6.64-6.64s6.64 2.973 6.64 6.64v20.618c0 3.667-2.973 6.64-6.64 6.64s-6.64-2.973-6.64-6.64zm216.131-81.899c0-3.667 2.973-6.64 6.64-6.64s6.64 2.973 6.64 6.64v20.618c0 3.667-2.973 6.64-6.64 6.64s-6.64-2.973-6.64-6.64z" fill="#ffbf31"/><path d="m355.898 67.397h32.464v30.266h30.266v32.464h-30.266v30.266h-32.464v-30.266h-30.267v-32.464h30.267z" fill="#60b7fe"/></g></svg>