<?xml version="1.0" encoding="utf-8"?>
<!-- Generator: Adobe Illustrator 21.1.0, SVG Export Plug-In . SVG Version: 6.00 Build 0)  -->
<svg version="1.1" id="Layer_1" xmlns="http://www.w3.org/2000/svg" xmlns:xlink="http://www.w3.org/1999/xlink" x="0px" y="0px"
	 viewBox="0 0 512 512" style="enable-background:new 0 0 512 512;" xml:space="preserve">
<style type="text/css">
	.st0{fill:#FFBF61;}
	.st1{fill:#FFE69F;}
	.st2{fill:#F2A95A;}
	.st3{fill:#FFA466;}
	.st4{fill:#DD4E70;}
	.st5{fill:#CC507A;}
	.st6{fill:#414042;}
</style>
<g>
	<g>
		<path class="st0" d="M440.7,479.8H71.3c-11,0-20-9-20-20v-87c0-11,9-20,20-20h369.4c11,0,20,9,20,20v87
			C460.7,470.9,451.8,479.8,440.7,479.8L440.7,479.8z"/>
	</g>
</g>
<g>
	<g>
		<path class="st1" d="M63.3,451.3c-2.2,0-4-1.8-4-4v-58c0-2.2,1.8-4,4-4s4,1.8,4,4v58C67.3,449.5,65.5,451.3,63.3,451.3z
			 M63.3,377.3c-2.2,0-4-1.8-4-4v-0.5c0-2.2,1.8-4,4-4s4,1.8,4,4v0.5C67.3,375.5,65.5,377.3,63.3,377.3z"/>
	</g>
</g>
<g>
	<g>
		<path class="st2" d="M440.7,352.8v87c0,11-9,20-20,20H51.3c0,11,9,20,20,20h369.4c11,0,20-9,20-20v-87
			C460.7,361.8,451.8,352.8,440.7,352.8L440.7,352.8z"/>
	</g>
</g>
<g>
	<g>
		<path class="st3" d="M448.9,354.6c1.1,2.5,1.8,5.3,1.8,8.2v87c0,11-9,20-20,20H61.3c-2.9,0-5.7-0.6-8.2-1.8
			c3.1,6.9,10.1,11.8,18.2,11.8h369.4c11,0,20-9,20-20v-87C460.7,364.7,455.9,357.8,448.9,354.6z"/>
	</g>
</g>
<g>
	<g>
		<path class="st4" d="M256,331.2l83.8-99c-19.6-24.6-49.8-40.4-83.8-40.4c-33.9,0-64.1,15.8-83.8,40.4L256,331.2z"/>
	</g>
</g>
<g>
	<g>
		<path class="st5" d="M256,335.2c-1.2,0-2.3-0.5-3.1-1.4l-220-260c-1.4-1.7-1.2-4.2,0.5-5.6s4.2-1.2,5.6,0.5L256,325L472.9,68.6
			c1.4-1.7,4-1.9,5.6-0.5c1.7,1.4,1.9,3.9,0.5,5.6l-220,260C258.3,334.7,257.2,335.2,256,335.2L256,335.2z"/>
	</g>
</g>
<circle class="st6" cx="258.7" cy="71.4" r="44.6"/>
</svg>
