<?xml version="1.0" standalone="no"?>
<!DOCTYPE svg PUBLIC "-//W3C//DTD SVG 20010904//EN"
 "http://www.w3.org/TR/2001/REC-SVG-20010904/DTD/svg10.dtd">
<svg version="1.0" xmlns="http://www.w3.org/2000/svg"
 width="600.000000pt" height="600.000000pt" viewBox="0 0 600.000000 600.000000"
 preserveAspectRatio="xMidYMid meet">
<metadata>
Created by potrace 1.14, written by Peter Selinger 2001-2017
</metadata>
<g transform="translate(0.000000,600.000000) scale(0.100000,-0.100000)"
fill="#000000" stroke="none">
<path d="M529 5976 c-2 -2 -22 -6 -44 -9 -161 -22 -332 -151 -409 -309 -70
-143 -65 73 -65 -2658 0 -2373 1 -2520 27 -2585 65 -161 164 -276 292 -338
148 -72 -73 -67 2665 -67 2430 0 2473 0 2549 20 108 27 190 73 267 150 72 72
109 129 148 229 l26 66 3 2475 c2 1836 0 2493 -8 2545 -18 108 -77 222 -158
304 -73 74 -129 111 -231 150 l-66 26 -2496 3 c-1372 1 -2497 0 -2500 -2z"/>
</g>
</svg>
